<mxfile host="app.diagrams.net" modified="2022-08-02T12:15:22.984Z" agent="5.0 (Windows NT 10.0; Win64; x64) AppleWebKit/537.36 (KHTML, like Gecko) Chrome/103.0.0.0 Safari/537.36" etag="OffSbBRLG_COpnPEYF5b" version="20.2.2" type="github">
  <diagram id="WzIYKn9JWgPCPKjEJvRS" name="Page-1">
    <mxGraphModel dx="1384" dy="1910" grid="1" gridSize="10" guides="1" tooltips="1" connect="1" arrows="1" fold="1" page="1" pageScale="1" pageWidth="827" pageHeight="1169" math="0" shadow="0">
      <root>
        <mxCell id="0" />
        <mxCell id="1" parent="0" />
        <mxCell id="hODroTGBOnxEAEhghBja-4" value="" style="edgeStyle=orthogonalEdgeStyle;rounded=0;orthogonalLoop=1;jettySize=auto;html=1;fontSize=14;fillColor=#d5e8d4;strokeColor=#82b366;" parent="1" source="hODroTGBOnxEAEhghBja-2" target="hODroTGBOnxEAEhghBja-3" edge="1">
          <mxGeometry relative="1" as="geometry" />
        </mxCell>
        <mxCell id="hODroTGBOnxEAEhghBja-2" value="Spring" style="rounded=1;whiteSpace=wrap;html=1;fontSize=14;fillColor=#d5e8d4;strokeColor=#82b366;" parent="1" vertex="1">
          <mxGeometry x="140" y="-1110" width="120" height="60" as="geometry" />
        </mxCell>
        <mxCell id="hODroTGBOnxEAEhghBja-6" value="" style="edgeStyle=orthogonalEdgeStyle;rounded=0;orthogonalLoop=1;jettySize=auto;html=1;fontSize=14;fillColor=#d5e8d4;strokeColor=#82b366;" parent="1" source="hODroTGBOnxEAEhghBja-3" target="hODroTGBOnxEAEhghBja-5" edge="1">
          <mxGeometry relative="1" as="geometry" />
        </mxCell>
        <mxCell id="hODroTGBOnxEAEhghBja-3" value="Spring Boot" style="whiteSpace=wrap;html=1;fontSize=14;rounded=1;fillColor=#d5e8d4;strokeColor=#82b366;" parent="1" vertex="1">
          <mxGeometry x="340" y="-1110" width="120" height="60" as="geometry" />
        </mxCell>
        <mxCell id="hODroTGBOnxEAEhghBja-5" value="Spring Cloud" style="whiteSpace=wrap;html=1;fontSize=14;rounded=1;fillColor=#d5e8d4;strokeColor=#82b366;" parent="1" vertex="1">
          <mxGeometry x="540" y="-1110" width="120" height="60" as="geometry" />
        </mxCell>
        <mxCell id="hODroTGBOnxEAEhghBja-7" value="Spirng 是 Spring 系列框架应用的基石，其他两个应用框架是建立在该应用的基础&lt;br&gt;了解 Spring 的源码，有助于对于其他两个框架设计的理解" style="text;html=1;strokeColor=none;fillColor=none;align=center;verticalAlign=middle;whiteSpace=wrap;rounded=0;fontSize=14;" parent="1" vertex="1">
          <mxGeometry x="99" y="-1150" width="630" height="30" as="geometry" />
        </mxCell>
        <mxCell id="hODroTGBOnxEAEhghBja-8" value="了解 Spring 可以做什么&lt;br&gt;基于 Spring 二次开发，学习起设计思想，规范自己的代码格式&lt;br&gt;面试最重要" style="rounded=0;whiteSpace=wrap;html=1;fontSize=14;fillColor=#ffe6cc;strokeColor=#d79b00;" parent="1" vertex="1">
          <mxGeometry x="140" y="-1030" width="530" height="60" as="geometry" />
        </mxCell>
        <mxCell id="hODroTGBOnxEAEhghBja-14" value="" style="edgeStyle=orthogonalEdgeStyle;rounded=0;orthogonalLoop=1;jettySize=auto;html=1;fontSize=14;entryX=0;entryY=0.5;entryDx=0;entryDy=0;" parent="1" source="hODroTGBOnxEAEhghBja-10" target="hODroTGBOnxEAEhghBja-13" edge="1">
          <mxGeometry relative="1" as="geometry" />
        </mxCell>
        <mxCell id="hODroTGBOnxEAEhghBja-10" value="Spring 重要的两大特性" style="rounded=1;whiteSpace=wrap;html=1;fontSize=14;fillColor=#dae8fc;strokeColor=#6c8ebf;" parent="1" vertex="1">
          <mxGeometry x="10" y="-850" width="120" height="60" as="geometry" />
        </mxCell>
        <mxCell id="hODroTGBOnxEAEhghBja-13" value="AOP(切面)" style="rounded=1;whiteSpace=wrap;html=1;fontSize=14;fillColor=#d5e8d4;strokeColor=#82b366;" parent="1" vertex="1">
          <mxGeometry x="180" y="-950" width="120" height="60" as="geometry" />
        </mxCell>
        <mxCell id="Li9awI9Rj4b1zbL3ckWH-1" value="" style="group" vertex="1" connectable="0" parent="1">
          <mxGeometry x="180" y="-820" width="2170" height="1140" as="geometry" />
        </mxCell>
        <mxCell id="H4bbrRVj7kRqIUKwOBPa-1" value="" style="group" parent="Li9awI9Rj4b1zbL3ckWH-1" vertex="1" connectable="0">
          <mxGeometry y="10" width="790" height="190" as="geometry" />
        </mxCell>
        <mxCell id="hODroTGBOnxEAEhghBja-11" value="IOC(控制反转(依赖注入, 又称为 DI))" style="whiteSpace=wrap;html=1;fontSize=14;rounded=1;fillColor=#fff2cc;strokeColor=#d6b656;" parent="H4bbrRVj7kRqIUKwOBPa-1" vertex="1">
          <mxGeometry y="50" width="150" height="50" as="geometry" />
        </mxCell>
        <mxCell id="hODroTGBOnxEAEhghBja-17" value="背景：系统运行需要各个组件配合运行，并且组件之间又相互依赖" style="whiteSpace=wrap;html=1;fontSize=14;rounded=1;align=left;fillColor=#f8cecc;strokeColor=#b85450;" parent="H4bbrRVj7kRqIUKwOBPa-1" vertex="1">
          <mxGeometry x="190" width="280" height="40" as="geometry" />
        </mxCell>
        <mxCell id="hODroTGBOnxEAEhghBja-19" value="问题：组件生命周期和相互依赖的关系需要开发人员维护，增加系统复杂性以及组件之间的耦合性" style="whiteSpace=wrap;html=1;fontSize=14;fillColor=#fff2cc;strokeColor=#d6b656;rounded=1;align=left;" parent="H4bbrRVj7kRqIUKwOBPa-1" vertex="1">
          <mxGeometry x="245" y="45" width="325" height="60" as="geometry" />
        </mxCell>
        <mxCell id="hODroTGBOnxEAEhghBja-21" value="总结：&lt;br&gt;1. 组件对象谁负责创建；&lt;br&gt;2. 组件依赖关系谁负责维护；&lt;br&gt;3. 组件声明周期谁负责维护；" style="whiteSpace=wrap;html=1;fontSize=14;align=left;fillColor=#fff2cc;strokeColor=#d6b656;rounded=1;" parent="H4bbrRVj7kRqIUKwOBPa-1" vertex="1">
          <mxGeometry x="601" y="35" width="189" height="80" as="geometry" />
        </mxCell>
        <mxCell id="hODroTGBOnxEAEhghBja-23" value="解决：IOC，将所有组件对象放入 Spring IOC 容器中，交由 Spring 维护。需要那些组件就像容器中注入那些组件。因而 IOC 又称为 DI(依赖注入)" style="whiteSpace=wrap;html=1;fontSize=14;fillColor=#fff2cc;strokeColor=#d6b656;rounded=1;align=left;" parent="H4bbrRVj7kRqIUKwOBPa-1" vertex="1">
          <mxGeometry x="190" y="130" width="340" height="60" as="geometry" />
        </mxCell>
        <mxCell id="hODroTGBOnxEAEhghBja-25" value="IOC 容器以 Map 形式对象" style="whiteSpace=wrap;html=1;fontSize=14;align=left;fillColor=#fff2cc;strokeColor=#d6b656;rounded=1;" parent="H4bbrRVj7kRqIUKwOBPa-1" vertex="1">
          <mxGeometry x="590" y="130" width="120" height="60" as="geometry" />
        </mxCell>
        <mxCell id="hODroTGBOnxEAEhghBja-18" value="" style="edgeStyle=orthogonalEdgeStyle;rounded=0;orthogonalLoop=1;jettySize=auto;html=1;fontSize=14;entryX=0;entryY=0.5;entryDx=0;entryDy=0;" parent="H4bbrRVj7kRqIUKwOBPa-1" source="hODroTGBOnxEAEhghBja-11" target="hODroTGBOnxEAEhghBja-17" edge="1">
          <mxGeometry relative="1" as="geometry" />
        </mxCell>
        <mxCell id="hODroTGBOnxEAEhghBja-20" value="" style="edgeStyle=orthogonalEdgeStyle;rounded=0;orthogonalLoop=1;jettySize=auto;html=1;fontSize=14;" parent="H4bbrRVj7kRqIUKwOBPa-1" source="hODroTGBOnxEAEhghBja-11" target="hODroTGBOnxEAEhghBja-19" edge="1">
          <mxGeometry relative="1" as="geometry" />
        </mxCell>
        <mxCell id="hODroTGBOnxEAEhghBja-22" value="" style="edgeStyle=orthogonalEdgeStyle;rounded=0;orthogonalLoop=1;jettySize=auto;html=1;fontSize=14;" parent="H4bbrRVj7kRqIUKwOBPa-1" source="hODroTGBOnxEAEhghBja-19" target="hODroTGBOnxEAEhghBja-21" edge="1">
          <mxGeometry relative="1" as="geometry" />
        </mxCell>
        <mxCell id="hODroTGBOnxEAEhghBja-24" value="" style="edgeStyle=orthogonalEdgeStyle;rounded=0;orthogonalLoop=1;jettySize=auto;html=1;fontSize=14;entryX=0;entryY=0.5;entryDx=0;entryDy=0;" parent="H4bbrRVj7kRqIUKwOBPa-1" source="hODroTGBOnxEAEhghBja-11" target="hODroTGBOnxEAEhghBja-23" edge="1">
          <mxGeometry relative="1" as="geometry" />
        </mxCell>
        <mxCell id="hODroTGBOnxEAEhghBja-26" value="" style="edgeStyle=orthogonalEdgeStyle;rounded=0;orthogonalLoop=1;jettySize=auto;html=1;fontSize=14;" parent="H4bbrRVj7kRqIUKwOBPa-1" source="hODroTGBOnxEAEhghBja-23" target="hODroTGBOnxEAEhghBja-25" edge="1">
          <mxGeometry relative="1" as="geometry" />
        </mxCell>
        <mxCell id="H4bbrRVj7kRqIUKwOBPa-2" style="edgeStyle=orthogonalEdgeStyle;rounded=0;orthogonalLoop=1;jettySize=auto;html=1;exitX=1;exitY=0.5;exitDx=0;exitDy=0;fontSize=14;" parent="Li9awI9Rj4b1zbL3ckWH-1" source="hODroTGBOnxEAEhghBja-21" target="H4bbrRVj7kRqIUKwOBPa-5" edge="1">
          <mxGeometry relative="1" as="geometry">
            <mxPoint x="880" y="85" as="targetPoint" />
          </mxGeometry>
        </mxCell>
        <mxCell id="H4bbrRVj7kRqIUKwOBPa-3" style="edgeStyle=orthogonalEdgeStyle;rounded=0;orthogonalLoop=1;jettySize=auto;html=1;exitX=1;exitY=0.5;exitDx=0;exitDy=0;fontSize=14;" parent="Li9awI9Rj4b1zbL3ckWH-1" source="hODroTGBOnxEAEhghBja-17" edge="1">
          <mxGeometry relative="1" as="geometry">
            <mxPoint x="860" y="80" as="targetPoint" />
          </mxGeometry>
        </mxCell>
        <mxCell id="H4bbrRVj7kRqIUKwOBPa-4" style="edgeStyle=orthogonalEdgeStyle;rounded=0;orthogonalLoop=1;jettySize=auto;html=1;exitX=1;exitY=0.5;exitDx=0;exitDy=0;fontSize=14;" parent="Li9awI9Rj4b1zbL3ckWH-1" source="hODroTGBOnxEAEhghBja-25" edge="1">
          <mxGeometry relative="1" as="geometry">
            <mxPoint x="860" y="90" as="targetPoint" />
          </mxGeometry>
        </mxCell>
        <mxCell id="H4bbrRVj7kRqIUKwOBPa-5" value="Spring 加载方式" style="rounded=1;whiteSpace=wrap;html=1;fontSize=14;fillColor=#e3c800;fontColor=#000000;strokeColor=#B09500;" parent="Li9awI9Rj4b1zbL3ckWH-1" vertex="1">
          <mxGeometry x="880" y="55" width="120" height="60" as="geometry" />
        </mxCell>
        <mxCell id="H4bbrRVj7kRqIUKwOBPa-8" value="注解" style="whiteSpace=wrap;html=1;fontSize=14;fillColor=#e3c800;strokeColor=#B09500;fontColor=#000000;rounded=1;" parent="Li9awI9Rj4b1zbL3ckWH-1" vertex="1">
          <mxGeometry x="1040" width="120" height="60" as="geometry" />
        </mxCell>
        <mxCell id="H4bbrRVj7kRqIUKwOBPa-9" value="" style="edgeStyle=orthogonalEdgeStyle;rounded=0;orthogonalLoop=1;jettySize=auto;html=1;fontSize=14;entryX=0;entryY=0.5;entryDx=0;entryDy=0;" parent="Li9awI9Rj4b1zbL3ckWH-1" source="H4bbrRVj7kRqIUKwOBPa-5" target="H4bbrRVj7kRqIUKwOBPa-8" edge="1">
          <mxGeometry relative="1" as="geometry" />
        </mxCell>
        <mxCell id="H4bbrRVj7kRqIUKwOBPa-33" value="" style="group" parent="Li9awI9Rj4b1zbL3ckWH-1" vertex="1" connectable="0">
          <mxGeometry x="1040" y="100" width="1130" height="150" as="geometry" />
        </mxCell>
        <mxCell id="H4bbrRVj7kRqIUKwOBPa-10" value="XML" style="whiteSpace=wrap;html=1;fontSize=14;fillColor=#e3c800;strokeColor=#B09500;fontColor=#000000;rounded=1;" parent="H4bbrRVj7kRqIUKwOBPa-33" vertex="1">
          <mxGeometry width="120" height="60" as="geometry" />
        </mxCell>
        <mxCell id="H4bbrRVj7kRqIUKwOBPa-14" value="加载 XML 文件" style="whiteSpace=wrap;html=1;fontSize=14;fillColor=#e3c800;strokeColor=#B09500;fontColor=#000000;rounded=1;" parent="H4bbrRVj7kRqIUKwOBPa-33" vertex="1">
          <mxGeometry x="160" width="120" height="60" as="geometry" />
        </mxCell>
        <mxCell id="H4bbrRVj7kRqIUKwOBPa-15" value="" style="edgeStyle=orthogonalEdgeStyle;rounded=0;orthogonalLoop=1;jettySize=auto;html=1;fontSize=14;" parent="H4bbrRVj7kRqIUKwOBPa-33" source="H4bbrRVj7kRqIUKwOBPa-10" target="H4bbrRVj7kRqIUKwOBPa-14" edge="1">
          <mxGeometry relative="1" as="geometry" />
        </mxCell>
        <mxCell id="H4bbrRVj7kRqIUKwOBPa-16" value="解析XML" style="whiteSpace=wrap;html=1;fontSize=14;fillColor=#e3c800;strokeColor=#B09500;fontColor=#000000;rounded=1;" parent="H4bbrRVj7kRqIUKwOBPa-33" vertex="1">
          <mxGeometry x="320" width="120" height="60" as="geometry" />
        </mxCell>
        <mxCell id="H4bbrRVj7kRqIUKwOBPa-17" value="" style="edgeStyle=orthogonalEdgeStyle;rounded=0;orthogonalLoop=1;jettySize=auto;html=1;fontSize=14;" parent="H4bbrRVj7kRqIUKwOBPa-33" source="H4bbrRVj7kRqIUKwOBPa-14" target="H4bbrRVj7kRqIUKwOBPa-16" edge="1">
          <mxGeometry relative="1" as="geometry" />
        </mxCell>
        <mxCell id="H4bbrRVj7kRqIUKwOBPa-24" style="edgeStyle=orthogonalEdgeStyle;rounded=0;orthogonalLoop=1;jettySize=auto;html=1;exitX=0.5;exitY=1;exitDx=0;exitDy=0;fontSize=14;" parent="H4bbrRVj7kRqIUKwOBPa-33" source="H4bbrRVj7kRqIUKwOBPa-18" edge="1">
          <mxGeometry relative="1" as="geometry">
            <mxPoint x="670" y="100" as="targetPoint" />
          </mxGeometry>
        </mxCell>
        <mxCell id="H4bbrRVj7kRqIUKwOBPa-18" value="创建BeanDefinition&lt;br&gt;承载XML的各种属性" style="whiteSpace=wrap;html=1;fontSize=14;fillColor=#e3c800;strokeColor=#B09500;fontColor=#000000;rounded=1;" parent="H4bbrRVj7kRqIUKwOBPa-33" vertex="1">
          <mxGeometry x="490" width="160" height="60" as="geometry" />
        </mxCell>
        <mxCell id="H4bbrRVj7kRqIUKwOBPa-19" value="" style="edgeStyle=orthogonalEdgeStyle;rounded=0;orthogonalLoop=1;jettySize=auto;html=1;fontSize=14;" parent="H4bbrRVj7kRqIUKwOBPa-33" source="H4bbrRVj7kRqIUKwOBPa-16" target="H4bbrRVj7kRqIUKwOBPa-18" edge="1">
          <mxGeometry relative="1" as="geometry" />
        </mxCell>
        <mxCell id="H4bbrRVj7kRqIUKwOBPa-20" value="生成 Bean 对象" style="whiteSpace=wrap;html=1;fontSize=14;fillColor=#e3c800;strokeColor=#B09500;fontColor=#000000;rounded=1;" parent="H4bbrRVj7kRqIUKwOBPa-33" vertex="1">
          <mxGeometry x="690" width="120" height="60" as="geometry" />
        </mxCell>
        <mxCell id="H4bbrRVj7kRqIUKwOBPa-21" value="" style="edgeStyle=orthogonalEdgeStyle;rounded=0;orthogonalLoop=1;jettySize=auto;html=1;fontSize=14;" parent="H4bbrRVj7kRqIUKwOBPa-33" source="H4bbrRVj7kRqIUKwOBPa-18" target="H4bbrRVj7kRqIUKwOBPa-20" edge="1">
          <mxGeometry relative="1" as="geometry" />
        </mxCell>
        <mxCell id="H4bbrRVj7kRqIUKwOBPa-27" value="BeanDefinition包含了对 Bean 对象的各种操作：创建、销毁、初始化等" style="rounded=1;whiteSpace=wrap;html=1;fontSize=14;fillColor=#fff2cc;strokeColor=#d6b656;" parent="H4bbrRVj7kRqIUKwOBPa-33" vertex="1">
          <mxGeometry x="580" y="100" width="180" height="50" as="geometry" />
        </mxCell>
        <mxCell id="H4bbrRVj7kRqIUKwOBPa-25" style="edgeStyle=orthogonalEdgeStyle;rounded=0;orthogonalLoop=1;jettySize=auto;html=1;exitX=0.5;exitY=1;exitDx=0;exitDy=0;fontSize=14;" parent="H4bbrRVj7kRqIUKwOBPa-33" source="H4bbrRVj7kRqIUKwOBPa-20" target="H4bbrRVj7kRqIUKwOBPa-27" edge="1">
          <mxGeometry relative="1" as="geometry">
            <mxPoint x="670" y="100" as="targetPoint" />
          </mxGeometry>
        </mxCell>
        <mxCell id="H4bbrRVj7kRqIUKwOBPa-29" value="放入容器" style="whiteSpace=wrap;html=1;fontSize=14;fillColor=#e3c800;strokeColor=#B09500;fontColor=#000000;rounded=1;" parent="H4bbrRVj7kRqIUKwOBPa-33" vertex="1">
          <mxGeometry x="850" width="120" height="60" as="geometry" />
        </mxCell>
        <mxCell id="H4bbrRVj7kRqIUKwOBPa-30" value="" style="edgeStyle=orthogonalEdgeStyle;rounded=0;orthogonalLoop=1;jettySize=auto;html=1;fontSize=14;" parent="H4bbrRVj7kRqIUKwOBPa-33" source="H4bbrRVj7kRqIUKwOBPa-20" target="H4bbrRVj7kRqIUKwOBPa-29" edge="1">
          <mxGeometry relative="1" as="geometry" />
        </mxCell>
        <mxCell id="H4bbrRVj7kRqIUKwOBPa-31" value="从容器中获取" style="whiteSpace=wrap;html=1;fontSize=14;fillColor=#e3c800;strokeColor=#B09500;fontColor=#000000;rounded=1;" parent="H4bbrRVj7kRqIUKwOBPa-33" vertex="1">
          <mxGeometry x="1010" width="120" height="60" as="geometry" />
        </mxCell>
        <mxCell id="H4bbrRVj7kRqIUKwOBPa-32" value="" style="edgeStyle=orthogonalEdgeStyle;rounded=0;orthogonalLoop=1;jettySize=auto;html=1;fontSize=14;" parent="H4bbrRVj7kRqIUKwOBPa-33" source="H4bbrRVj7kRqIUKwOBPa-29" target="H4bbrRVj7kRqIUKwOBPa-31" edge="1">
          <mxGeometry relative="1" as="geometry" />
        </mxCell>
        <mxCell id="H4bbrRVj7kRqIUKwOBPa-11" value="" style="edgeStyle=orthogonalEdgeStyle;rounded=0;orthogonalLoop=1;jettySize=auto;html=1;fontSize=14;entryX=0;entryY=0.5;entryDx=0;entryDy=0;" parent="Li9awI9Rj4b1zbL3ckWH-1" source="H4bbrRVj7kRqIUKwOBPa-5" target="H4bbrRVj7kRqIUKwOBPa-10" edge="1">
          <mxGeometry relative="1" as="geometry" />
        </mxCell>
        <mxCell id="Li9awI9Rj4b1zbL3ckWH-4" value="" style="group" vertex="1" connectable="0" parent="Li9awI9Rj4b1zbL3ckWH-1">
          <mxGeometry x="610" y="320" width="730" height="660" as="geometry" />
        </mxCell>
        <mxCell id="Li9awI9Rj4b1zbL3ckWH-2" value="" style="rounded=0;whiteSpace=wrap;html=1;fillColor=#ffe6cc;strokeColor=#d79b00;" vertex="1" parent="Li9awI9Rj4b1zbL3ckWH-4">
          <mxGeometry width="730" height="500" as="geometry" />
        </mxCell>
        <mxCell id="Li9awI9Rj4b1zbL3ckWH-3" value="IOC Container" style="text;html=1;strokeColor=#6c8ebf;fillColor=#dae8fc;align=center;verticalAlign=middle;whiteSpace=wrap;rounded=0;" vertex="1" parent="Li9awI9Rj4b1zbL3ckWH-4">
          <mxGeometry x="315" y="10" width="90" height="30" as="geometry" />
        </mxCell>
        <mxCell id="Li9awI9Rj4b1zbL3ckWH-22" value="BeanDefinition 创建" style="rounded=0;whiteSpace=wrap;html=1;fillColor=#d5e8d4;strokeColor=#82b366;" vertex="1" parent="Li9awI9Rj4b1zbL3ckWH-4">
          <mxGeometry x="40" y="430" width="120" height="60" as="geometry" />
        </mxCell>
        <mxCell id="Li9awI9Rj4b1zbL3ckWH-80" value="创建bean对象&lt;br&gt;实例化" style="whiteSpace=wrap;html=1;fillColor=#d5e8d4;strokeColor=#82b366;rounded=0;" vertex="1" parent="Li9awI9Rj4b1zbL3ckWH-4">
          <mxGeometry x="591" y="430" width="120" height="60" as="geometry" />
        </mxCell>
        <mxCell id="Li9awI9Rj4b1zbL3ckWH-86" value="&lt;span style=&quot;font-size: 11px;&quot;&gt;反射&lt;/span&gt;&lt;br style=&quot;font-size: 11px;&quot;&gt;&lt;span style=&quot;font-size: 11px;&quot;&gt;相比于 new 的方式&lt;/span&gt;&lt;br style=&quot;font-size: 11px;&quot;&gt;&lt;span style=&quot;font-size: 11px;&quot;&gt;反射更加灵活&lt;/span&gt;" style="whiteSpace=wrap;html=1;fillColor=#e3c800;strokeColor=#B09500;rounded=0;fontColor=#000000;" vertex="1" parent="Li9awI9Rj4b1zbL3ckWH-4">
          <mxGeometry x="300" y="430" width="120" height="60" as="geometry" />
        </mxCell>
        <mxCell id="Li9awI9Rj4b1zbL3ckWH-87" value="" style="edgeStyle=orthogonalEdgeStyle;rounded=0;orthogonalLoop=1;jettySize=auto;html=1;dashed=1;" edge="1" parent="Li9awI9Rj4b1zbL3ckWH-4" source="Li9awI9Rj4b1zbL3ckWH-22" target="Li9awI9Rj4b1zbL3ckWH-86">
          <mxGeometry relative="1" as="geometry" />
        </mxCell>
        <mxCell id="Li9awI9Rj4b1zbL3ckWH-88" style="edgeStyle=orthogonalEdgeStyle;rounded=0;orthogonalLoop=1;jettySize=auto;html=1;exitX=1;exitY=0.5;exitDx=0;exitDy=0;entryX=0;entryY=0.5;entryDx=0;entryDy=0;dashed=1;" edge="1" parent="Li9awI9Rj4b1zbL3ckWH-4" source="Li9awI9Rj4b1zbL3ckWH-86" target="Li9awI9Rj4b1zbL3ckWH-80">
          <mxGeometry relative="1" as="geometry" />
        </mxCell>
        <mxCell id="Li9awI9Rj4b1zbL3ckWH-93" value="反射拥有 bean 对象所有属性" style="whiteSpace=wrap;html=1;fillColor=#e3c800;strokeColor=#B09500;rounded=0;fontColor=#000000;" vertex="1" parent="Li9awI9Rj4b1zbL3ckWH-4">
          <mxGeometry x="300" y="520" width="120" height="60" as="geometry" />
        </mxCell>
        <mxCell id="Li9awI9Rj4b1zbL3ckWH-94" value="" style="edgeStyle=orthogonalEdgeStyle;rounded=0;orthogonalLoop=1;jettySize=auto;html=1;" edge="1" parent="Li9awI9Rj4b1zbL3ckWH-4" source="Li9awI9Rj4b1zbL3ckWH-86" target="Li9awI9Rj4b1zbL3ckWH-93">
          <mxGeometry relative="1" as="geometry" />
        </mxCell>
        <mxCell id="Li9awI9Rj4b1zbL3ckWH-95" value="Spring中的&lt;br&gt;Bean都是单利的" style="whiteSpace=wrap;html=1;fillColor=#d5e8d4;strokeColor=#82b366;rounded=0;" vertex="1" parent="Li9awI9Rj4b1zbL3ckWH-4">
          <mxGeometry x="591" y="520" width="120" height="60" as="geometry" />
        </mxCell>
        <mxCell id="Li9awI9Rj4b1zbL3ckWH-96" value="" style="edgeStyle=orthogonalEdgeStyle;rounded=0;orthogonalLoop=1;jettySize=auto;html=1;" edge="1" parent="Li9awI9Rj4b1zbL3ckWH-4" source="Li9awI9Rj4b1zbL3ckWH-80" target="Li9awI9Rj4b1zbL3ckWH-95">
          <mxGeometry relative="1" as="geometry" />
        </mxCell>
        <mxCell id="Li9awI9Rj4b1zbL3ckWH-97" value="scope" style="whiteSpace=wrap;html=1;fillColor=#d5e8d4;strokeColor=#82b366;rounded=0;" vertex="1" parent="Li9awI9Rj4b1zbL3ckWH-4">
          <mxGeometry x="591" y="600" width="120" height="60" as="geometry" />
        </mxCell>
        <mxCell id="Li9awI9Rj4b1zbL3ckWH-98" value="" style="edgeStyle=orthogonalEdgeStyle;rounded=0;orthogonalLoop=1;jettySize=auto;html=1;" edge="1" parent="Li9awI9Rj4b1zbL3ckWH-4" source="Li9awI9Rj4b1zbL3ckWH-95" target="Li9awI9Rj4b1zbL3ckWH-97">
          <mxGeometry relative="1" as="geometry" />
        </mxCell>
        <mxCell id="Li9awI9Rj4b1zbL3ckWH-107" value="Class.forName(类的完全限定名)" style="whiteSpace=wrap;html=1;fillColor=#e3c800;strokeColor=#B09500;fontColor=#000000;rounded=0;" vertex="1" parent="Li9awI9Rj4b1zbL3ckWH-4">
          <mxGeometry x="150" y="520" width="120" height="60" as="geometry" />
        </mxCell>
        <mxCell id="Li9awI9Rj4b1zbL3ckWH-108" value="" style="edgeStyle=orthogonalEdgeStyle;rounded=0;orthogonalLoop=1;jettySize=auto;html=1;" edge="1" parent="Li9awI9Rj4b1zbL3ckWH-4" source="Li9awI9Rj4b1zbL3ckWH-93" target="Li9awI9Rj4b1zbL3ckWH-107">
          <mxGeometry relative="1" as="geometry" />
        </mxCell>
        <mxCell id="Li9awI9Rj4b1zbL3ckWH-109" value="类.getClass();" style="whiteSpace=wrap;html=1;fillColor=#e3c800;strokeColor=#B09500;fontColor=#000000;rounded=0;" vertex="1" parent="Li9awI9Rj4b1zbL3ckWH-4">
          <mxGeometry x="150" y="600" width="120" height="60" as="geometry" />
        </mxCell>
        <mxCell id="Li9awI9Rj4b1zbL3ckWH-110" value="" style="edgeStyle=orthogonalEdgeStyle;rounded=0;orthogonalLoop=1;jettySize=auto;html=1;entryX=1;entryY=0.5;entryDx=0;entryDy=0;exitX=0.433;exitY=0.99;exitDx=0;exitDy=0;exitPerimeter=0;" edge="1" parent="Li9awI9Rj4b1zbL3ckWH-4" source="Li9awI9Rj4b1zbL3ckWH-93" target="Li9awI9Rj4b1zbL3ckWH-109">
          <mxGeometry relative="1" as="geometry" />
        </mxCell>
        <mxCell id="Li9awI9Rj4b1zbL3ckWH-119" value="Spring bean 的大致流程介绍，实际的实现并不是这样" style="text;html=1;strokeColor=#82b366;fillColor=#d5e8d4;align=center;verticalAlign=middle;whiteSpace=wrap;rounded=0;labelBackgroundColor=none;" vertex="1" parent="Li9awI9Rj4b1zbL3ckWH-4">
          <mxGeometry x="180" y="410" width="110" height="45" as="geometry" />
        </mxCell>
        <mxCell id="Li9awI9Rj4b1zbL3ckWH-122" value="创建bean对象&lt;br&gt;实例化" style="whiteSpace=wrap;html=1;fillColor=#d5e8d4;strokeColor=#82b366;rounded=0;" vertex="1" parent="Li9awI9Rj4b1zbL3ckWH-4">
          <mxGeometry x="591" y="20" width="120" height="60" as="geometry" />
        </mxCell>
        <mxCell id="Li9awI9Rj4b1zbL3ckWH-129" value="" style="rounded=0;whiteSpace=wrap;html=1;labelBackgroundColor=none;fillColor=#d5e8d4;strokeColor=#82b366;" vertex="1" parent="Li9awI9Rj4b1zbL3ckWH-4">
          <mxGeometry x="15" y="60" width="225" height="90" as="geometry" />
        </mxCell>
        <mxCell id="Li9awI9Rj4b1zbL3ckWH-123" value="" style="edgeStyle=orthogonalEdgeStyle;rounded=0;orthogonalLoop=1;jettySize=auto;html=1;entryX=0;entryY=0.5;entryDx=0;entryDy=0;exitX=0.5;exitY=0;exitDx=0;exitDy=0;" edge="1" parent="Li9awI9Rj4b1zbL3ckWH-4" source="Li9awI9Rj4b1zbL3ckWH-22" target="Li9awI9Rj4b1zbL3ckWH-122">
          <mxGeometry relative="1" as="geometry">
            <Array as="points">
              <mxPoint x="100" y="50" />
            </Array>
          </mxGeometry>
        </mxCell>
        <mxCell id="Li9awI9Rj4b1zbL3ckWH-124" value="﻿AutowireCapableBeanFactory：扩展" style="edgeLabel;html=1;align=center;verticalAlign=middle;resizable=0;points=[];" vertex="1" connectable="0" parent="Li9awI9Rj4b1zbL3ckWH-123">
          <mxGeometry x="-0.3827" relative="1" as="geometry">
            <mxPoint x="10" y="89" as="offset" />
          </mxGeometry>
        </mxCell>
        <mxCell id="Li9awI9Rj4b1zbL3ckWH-125" value="﻿DefaultListableBeanFactory" style="edgeLabel;html=1;align=center;verticalAlign=middle;resizable=0;points=[];" vertex="1" connectable="0" parent="Li9awI9Rj4b1zbL3ckWH-123">
          <mxGeometry x="-0.5121" y="1" relative="1" as="geometry">
            <mxPoint x="11" y="93" as="offset" />
          </mxGeometry>
        </mxCell>
        <mxCell id="Li9awI9Rj4b1zbL3ckWH-126" value="﻿BeanFactory" style="edgeLabel;html=1;align=center;verticalAlign=middle;resizable=0;points=[];" vertex="1" connectable="0" parent="Li9awI9Rj4b1zbL3ckWH-123">
          <mxGeometry x="-0.2953" relative="1" as="geometry">
            <mxPoint y="57" as="offset" />
          </mxGeometry>
        </mxCell>
        <mxCell id="Li9awI9Rj4b1zbL3ckWH-127" value="﻿BeanPostProcessor" style="edgeLabel;html=1;align=center;verticalAlign=middle;resizable=0;points=[];" vertex="1" connectable="0" parent="Li9awI9Rj4b1zbL3ckWH-123">
          <mxGeometry x="-0.3119" relative="1" as="geometry">
            <mxPoint as="offset" />
          </mxGeometry>
        </mxCell>
        <mxCell id="Li9awI9Rj4b1zbL3ckWH-128" value="﻿BeanFactoryPostProcessor" style="edgeLabel;html=1;align=center;verticalAlign=middle;resizable=0;points=[];" vertex="1" connectable="0" parent="Li9awI9Rj4b1zbL3ckWH-123">
          <mxGeometry x="-0.2053" relative="1" as="geometry">
            <mxPoint as="offset" />
          </mxGeometry>
        </mxCell>
        <mxCell id="Li9awI9Rj4b1zbL3ckWH-130" value="后置处理器&lt;br&gt;bean 增强" style="text;html=1;strokeColor=none;fillColor=none;align=center;verticalAlign=middle;whiteSpace=wrap;rounded=0;labelBackgroundColor=none;" vertex="1" parent="Li9awI9Rj4b1zbL3ckWH-4">
          <mxGeometry x="170" y="90" width="70" height="30" as="geometry" />
        </mxCell>
        <mxCell id="Li9awI9Rj4b1zbL3ckWH-14" value="" style="group" vertex="1" connectable="0" parent="Li9awI9Rj4b1zbL3ckWH-1">
          <mxGeometry x="-30" y="410" width="341" height="390" as="geometry" />
        </mxCell>
        <mxCell id="Li9awI9Rj4b1zbL3ckWH-8" value="" style="group;fillColor=#e1d5e7;strokeColor=#9673a6;" vertex="1" connectable="0" parent="Li9awI9Rj4b1zbL3ckWH-14">
          <mxGeometry x="181" width="160" height="390" as="geometry" />
        </mxCell>
        <mxCell id="Li9awI9Rj4b1zbL3ckWH-6" value="" style="rounded=0;whiteSpace=wrap;html=1;fillColor=#e1d5e7;strokeColor=#9673a6;" vertex="1" parent="Li9awI9Rj4b1zbL3ckWH-8">
          <mxGeometry width="160" height="390" as="geometry" />
        </mxCell>
        <mxCell id="Li9awI9Rj4b1zbL3ckWH-7" value="Spring 加载解析定义 bean 对象信息的文件" style="text;html=1;strokeColor=#6c8ebf;fillColor=#dae8fc;align=center;verticalAlign=middle;whiteSpace=wrap;rounded=0;" vertex="1" parent="Li9awI9Rj4b1zbL3ckWH-8">
          <mxGeometry x="20" y="10" width="120" height="30" as="geometry" />
        </mxCell>
        <mxCell id="Li9awI9Rj4b1zbL3ckWH-9" value="XML 文件&amp;nbsp;&amp;nbsp;" style="rounded=1;whiteSpace=wrap;html=1;" vertex="1" parent="Li9awI9Rj4b1zbL3ckWH-8">
          <mxGeometry y="80" width="160" height="60" as="geometry" />
        </mxCell>
        <mxCell id="Li9awI9Rj4b1zbL3ckWH-10" value="YML 文件&amp;nbsp;&amp;nbsp;" style="rounded=1;whiteSpace=wrap;html=1;" vertex="1" parent="Li9awI9Rj4b1zbL3ckWH-8">
          <mxGeometry y="180" width="160" height="60" as="geometry" />
        </mxCell>
        <mxCell id="Li9awI9Rj4b1zbL3ckWH-12" value="Properties 文件&amp;nbsp;&amp;nbsp;" style="rounded=1;whiteSpace=wrap;html=1;" vertex="1" parent="Li9awI9Rj4b1zbL3ckWH-8">
          <mxGeometry y="270" width="160" height="60" as="geometry" />
        </mxCell>
        <mxCell id="Li9awI9Rj4b1zbL3ckWH-13" style="edgeStyle=orthogonalEdgeStyle;rounded=0;orthogonalLoop=1;jettySize=auto;html=1;exitX=1;exitY=0.5;exitDx=0;exitDy=0;" edge="1" parent="Li9awI9Rj4b1zbL3ckWH-14" source="Li9awI9Rj4b1zbL3ckWH-5">
          <mxGeometry relative="1" as="geometry">
            <mxPoint x="171" y="200" as="targetPoint" />
          </mxGeometry>
        </mxCell>
        <mxCell id="Li9awI9Rj4b1zbL3ckWH-5" value="1.需要初始一个 bean 对象" style="rounded=1;whiteSpace=wrap;html=1;fillColor=#f8cecc;strokeColor=#b85450;" vertex="1" parent="Li9awI9Rj4b1zbL3ckWH-14">
          <mxGeometry y="170" width="120" height="60" as="geometry" />
        </mxCell>
        <mxCell id="Li9awI9Rj4b1zbL3ckWH-23" style="edgeStyle=orthogonalEdgeStyle;rounded=0;orthogonalLoop=1;jettySize=auto;html=1;exitX=1;exitY=0.5;exitDx=0;exitDy=0;entryX=0;entryY=0.5;entryDx=0;entryDy=0;" edge="1" parent="Li9awI9Rj4b1zbL3ckWH-1" source="Li9awI9Rj4b1zbL3ckWH-17" target="Li9awI9Rj4b1zbL3ckWH-22">
          <mxGeometry relative="1" as="geometry" />
        </mxCell>
        <mxCell id="Li9awI9Rj4b1zbL3ckWH-17" value="抽象类&lt;br&gt;﻿BeanDefinitionReader&lt;br&gt;实现不同的文件解析协议&lt;br&gt;(扩展类)" style="rounded=1;whiteSpace=wrap;html=1;fillColor=#f8cecc;strokeColor=#b85450;" vertex="1" parent="Li9awI9Rj4b1zbL3ckWH-1">
          <mxGeometry x="430" y="575" width="140" height="60" as="geometry" />
        </mxCell>
        <mxCell id="Li9awI9Rj4b1zbL3ckWH-19" style="edgeStyle=orthogonalEdgeStyle;rounded=0;orthogonalLoop=1;jettySize=auto;html=1;exitX=1;exitY=0.5;exitDx=0;exitDy=0;entryX=0;entryY=0.5;entryDx=0;entryDy=0;" edge="1" parent="Li9awI9Rj4b1zbL3ckWH-1" source="Li9awI9Rj4b1zbL3ckWH-9" target="Li9awI9Rj4b1zbL3ckWH-17">
          <mxGeometry relative="1" as="geometry" />
        </mxCell>
        <mxCell id="Li9awI9Rj4b1zbL3ckWH-21" style="edgeStyle=orthogonalEdgeStyle;rounded=0;orthogonalLoop=1;jettySize=auto;html=1;exitX=1;exitY=0.5;exitDx=0;exitDy=0;entryX=0;entryY=0.5;entryDx=0;entryDy=0;" edge="1" parent="Li9awI9Rj4b1zbL3ckWH-1" source="Li9awI9Rj4b1zbL3ckWH-12" target="Li9awI9Rj4b1zbL3ckWH-17">
          <mxGeometry relative="1" as="geometry" />
        </mxCell>
        <mxCell id="Li9awI9Rj4b1zbL3ckWH-20" style="edgeStyle=orthogonalEdgeStyle;rounded=0;orthogonalLoop=1;jettySize=auto;html=1;exitX=1;exitY=0.5;exitDx=0;exitDy=0;entryX=0;entryY=0.5;entryDx=0;entryDy=0;" edge="1" parent="Li9awI9Rj4b1zbL3ckWH-1" source="Li9awI9Rj4b1zbL3ckWH-10" target="Li9awI9Rj4b1zbL3ckWH-17">
          <mxGeometry relative="1" as="geometry">
            <mxPoint x="430" y="600" as="targetPoint" />
          </mxGeometry>
        </mxCell>
        <mxCell id="Li9awI9Rj4b1zbL3ckWH-116" value="Constructor ctor = Clazz.getConstructor();&lt;br&gt;Object obj = ctor.newInstance()" style="rounded=1;whiteSpace=wrap;html=1;labelBackgroundColor=none;fillColor=#b1ddf0;strokeColor=#10739e;" vertex="1" parent="Li9awI9Rj4b1zbL3ckWH-1">
          <mxGeometry x="400" y="920" width="260" height="60" as="geometry" />
        </mxCell>
        <mxCell id="Li9awI9Rj4b1zbL3ckWH-115" style="edgeStyle=orthogonalEdgeStyle;rounded=0;orthogonalLoop=1;jettySize=auto;html=1;exitX=0;exitY=0.5;exitDx=0;exitDy=0;" edge="1" parent="Li9awI9Rj4b1zbL3ckWH-1" source="Li9awI9Rj4b1zbL3ckWH-109" target="Li9awI9Rj4b1zbL3ckWH-116">
          <mxGeometry relative="1" as="geometry">
            <mxPoint x="660" y="950" as="targetPoint" />
          </mxGeometry>
        </mxCell>
        <mxCell id="Li9awI9Rj4b1zbL3ckWH-99" value="singleton(单例：一个&lt;br&gt;bean 容器中只存在一份)" style="whiteSpace=wrap;html=1;fillColor=#d5e8d4;strokeColor=#82b366;rounded=0;" vertex="1" parent="Li9awI9Rj4b1zbL3ckWH-1">
          <mxGeometry x="1120" y="1020" width="120" height="60" as="geometry" />
        </mxCell>
        <mxCell id="Li9awI9Rj4b1zbL3ckWH-100" value="" style="edgeStyle=orthogonalEdgeStyle;rounded=0;orthogonalLoop=1;jettySize=auto;html=1;exitX=0.5;exitY=1;exitDx=0;exitDy=0;" edge="1" parent="Li9awI9Rj4b1zbL3ckWH-1" source="Li9awI9Rj4b1zbL3ckWH-97" target="Li9awI9Rj4b1zbL3ckWH-99">
          <mxGeometry relative="1" as="geometry" />
        </mxCell>
        <mxCell id="Li9awI9Rj4b1zbL3ckWH-101" value="prototype(原型：每次使用时都创建新类)" style="whiteSpace=wrap;html=1;fillColor=#d5e8d4;strokeColor=#82b366;rounded=0;" vertex="1" parent="Li9awI9Rj4b1zbL3ckWH-1">
          <mxGeometry x="1260" y="1020" width="120" height="60" as="geometry" />
        </mxCell>
        <mxCell id="Li9awI9Rj4b1zbL3ckWH-102" value="" style="edgeStyle=orthogonalEdgeStyle;rounded=0;orthogonalLoop=1;jettySize=auto;html=1;" edge="1" parent="Li9awI9Rj4b1zbL3ckWH-1" source="Li9awI9Rj4b1zbL3ckWH-97" target="Li9awI9Rj4b1zbL3ckWH-101">
          <mxGeometry relative="1" as="geometry" />
        </mxCell>
        <mxCell id="Li9awI9Rj4b1zbL3ckWH-103" value="request(每次http请求创建一个实例，仅在&lt;br&gt;当前http请求有效)" style="whiteSpace=wrap;html=1;fillColor=#d5e8d4;strokeColor=#82b366;rounded=0;" vertex="1" parent="Li9awI9Rj4b1zbL3ckWH-1">
          <mxGeometry x="1400" y="1020" width="120" height="60" as="geometry" />
        </mxCell>
        <mxCell id="Li9awI9Rj4b1zbL3ckWH-104" value="" style="edgeStyle=orthogonalEdgeStyle;rounded=0;orthogonalLoop=1;jettySize=auto;html=1;exitX=0.5;exitY=1;exitDx=0;exitDy=0;" edge="1" parent="Li9awI9Rj4b1zbL3ckWH-1" source="Li9awI9Rj4b1zbL3ckWH-97" target="Li9awI9Rj4b1zbL3ckWH-103">
          <mxGeometry relative="1" as="geometry" />
        </mxCell>
        <mxCell id="Li9awI9Rj4b1zbL3ckWH-105" value="session(同 request，仅在 session 内有效)" style="whiteSpace=wrap;html=1;fillColor=#d5e8d4;strokeColor=#82b366;rounded=0;" vertex="1" parent="Li9awI9Rj4b1zbL3ckWH-1">
          <mxGeometry x="1540" y="1020" width="120" height="60" as="geometry" />
        </mxCell>
        <mxCell id="Li9awI9Rj4b1zbL3ckWH-106" value="" style="edgeStyle=orthogonalEdgeStyle;rounded=0;orthogonalLoop=1;jettySize=auto;html=1;exitX=0.5;exitY=1;exitDx=0;exitDy=0;" edge="1" parent="Li9awI9Rj4b1zbL3ckWH-1" source="Li9awI9Rj4b1zbL3ckWH-97" target="Li9awI9Rj4b1zbL3ckWH-105">
          <mxGeometry relative="1" as="geometry" />
        </mxCell>
        <mxCell id="Li9awI9Rj4b1zbL3ckWH-114" style="edgeStyle=orthogonalEdgeStyle;rounded=0;orthogonalLoop=1;jettySize=auto;html=1;exitX=0;exitY=0.5;exitDx=0;exitDy=0;" edge="1" parent="Li9awI9Rj4b1zbL3ckWH-1" source="Li9awI9Rj4b1zbL3ckWH-111">
          <mxGeometry relative="1" as="geometry">
            <mxPoint x="680" y="960" as="targetPoint" />
          </mxGeometry>
        </mxCell>
        <mxCell id="Li9awI9Rj4b1zbL3ckWH-111" value="类名.class()" style="whiteSpace=wrap;html=1;fillColor=#e3c800;strokeColor=#B09500;fontColor=#000000;rounded=0;" vertex="1" parent="Li9awI9Rj4b1zbL3ckWH-1">
          <mxGeometry x="760" y="1000" width="120" height="60" as="geometry" />
        </mxCell>
        <mxCell id="Li9awI9Rj4b1zbL3ckWH-112" value="" style="edgeStyle=orthogonalEdgeStyle;rounded=0;orthogonalLoop=1;jettySize=auto;html=1;entryX=1;entryY=0.5;entryDx=0;entryDy=0;exitX=0.427;exitY=1.003;exitDx=0;exitDy=0;exitPerimeter=0;" edge="1" parent="Li9awI9Rj4b1zbL3ckWH-1" source="Li9awI9Rj4b1zbL3ckWH-93" target="Li9awI9Rj4b1zbL3ckWH-111">
          <mxGeometry relative="1" as="geometry" />
        </mxCell>
        <mxCell id="Li9awI9Rj4b1zbL3ckWH-113" style="edgeStyle=orthogonalEdgeStyle;rounded=0;orthogonalLoop=1;jettySize=auto;html=1;exitX=0;exitY=0.5;exitDx=0;exitDy=0;" edge="1" parent="Li9awI9Rj4b1zbL3ckWH-1" source="Li9awI9Rj4b1zbL3ckWH-107">
          <mxGeometry relative="1" as="geometry">
            <mxPoint x="680" y="940" as="targetPoint" />
          </mxGeometry>
        </mxCell>
        <mxCell id="Li9awI9Rj4b1zbL3ckWH-121" value="Spring 中对 Bean 的操作提提供了工厂类&lt;br&gt;BeanFactory&lt;br&gt;该类是访问 IOC 容器的根接口" style="rounded=0;whiteSpace=wrap;html=1;labelBackgroundColor=none;fillColor=#d5e8d4;strokeColor=#82b366;" vertex="1" parent="Li9awI9Rj4b1zbL3ckWH-1">
          <mxGeometry x="610" y="250" width="730" height="60" as="geometry" />
        </mxCell>
        <mxCell id="hODroTGBOnxEAEhghBja-12" value="" style="edgeStyle=orthogonalEdgeStyle;rounded=0;orthogonalLoop=1;jettySize=auto;html=1;fontSize=14;entryX=0;entryY=0.5;entryDx=0;entryDy=0;" parent="1" source="hODroTGBOnxEAEhghBja-10" target="hODroTGBOnxEAEhghBja-11" edge="1">
          <mxGeometry relative="1" as="geometry" />
        </mxCell>
      </root>
    </mxGraphModel>
  </diagram>
</mxfile>
